<svg xmlns="http://www.w3.org/2000/svg" viewBox="0 0 70 70" style="enable-background:new 0 0 70 70" xml:space="preserve" aria-hidden="true">
  <path d="M47.6 69.9c-1.4-.2-2.9-.5-4.3-.8-4.9-1.3-9.1-4.3-11.9-8.5s-4.1-9.2-3.4-14.2c.2-2.2.8-4.3 1.7-6.3 10.5 10.6 27.5 10.7 38.1.2l.2-.2c.2.7.6 1.3.7 1.9 2.9 8.4.2 17.7-6.6 23.3-3.3 2.7-7.3 4.3-11.5 4.7-.1 0-.2 0-.3.1 0-.1-2.7-.2-2.7-.2zm-27.7 0c-.1 0-.2-.1-.3-.1-8.8-.7-16.3-6.7-18.6-15.2-.5-1.5-.7-2.9-.9-4.4v-2.6c.2-1.5.5-2.9.8-4.4 1.5-5.6 5.2-10.4 10.5-12.9 5-2.7 10.9-3.1 16.3-1.4.7.2 1.4.6 2.2.8-10.6 10.5-10.7 27.5-.2 38.1.1.1.1.2.2.2-1.5.7-3 1.3-4.8 1.5-.9.1-1.9.2-2.8.5 0-.1-2.4-.1-2.4-.1zm29-27.7c-3 0-6.1-.7-8.7-2 10.6-10.5 10.6-27.5.2-38.1l-.2-.2c.1-.1.2-.1.5-.2C43.3.7 46.1.1 48.9.1h.1c6.1 0 11.8 2.7 15.8 7.2.1.1.2.2.2.3 6.5 7.8 6.6 19.1.1 26.9l-.1.1c-4 4.8-9.8 7.6-16 7.6h-.1zM.5 25.2c-.2-.9-.3-1.9-.5-2.8v-2.6c.2-1.5.5-2.9.8-4.4 1.3-4.9 4.4-9.2 8.7-11.9C13.6.8 18.5-.3 23.2.2c5.7.6 10.9 3.4 14.3 7.9 3.5 4.3 5 9.9 4.3 15.5-.2 2.2-.8 4.3-1.7 6.3-10.3-10.5-27.3-10.6-37.9-.1l-.3.2C1.3 28.4.8 26.8.5 25.2z" style="fill:#0a1b21"></path>
</svg>