<svg xmlns="http://www.w3.org/2000/svg" viewBox="0 0 70 70" style="enable-background:new 0 0 70 70" xml:space="preserve" aria-hidden="true">
  <path d="M23.4 70V58.3c9.9.6 18.5-2.3 25.5-9.3 7-7 10-15.6 9.3-25.5H70V70H23.4zm0-17.7V23.4h28.9c1.6 14.4-8.8 27.4-23.3 28.9-.9.1-1.8.1-2.6.2-1 0-2-.1-3-.2zm-9.7-3C7.2 45.8 2.5 39.7.8 32.5c-.4-1.5-.5-3-.8-4.6v-3.4l.3-1.8C.9 17.8 3 13.2 6.1 9.5 9.8 5 14.8 2 20.3.7c1.4-.3 2.8-.5 4.2-.7h3.4c1.4.2 2.8.4 4.1.7 6.2 1.4 11.7 5 15.4 10.1 1.4 1.9 2.5 3.9 3.3 6 .1.2.1.4.2.7H17.5v33.6c-1.3-.6-2.6-1.1-3.8-1.8z" style="fill:#0a1b21"></path>
</svg>