<svg xmlns="http://www.w3.org/2000/svg" viewBox="0 0 70 70" style="enable-background:new 0 0 70 70" xml:space="preserve" aria-hidden="true">
  <path d="M34.9 70c-.2-.1-.4-.3-.6-.4L4 52.8c-.4-.2-.7-.6-.6-1.1V18c0-.4.2-.8.6-1C14.1 11.5 24.3 5.8 34.4.2c.3-.2.8-.2 1.1 0C45.7 5.8 55.8 11.5 66 17.1c.4.2.6.6.6 1v33.7c0 .5-.2.9-.6 1.1C55.9 58.4 45.8 64 35.7 69.6c-.2.1-.4.3-.6.4h-.2zm-.4-54.8c-5.7 3.2-11.4 6.3-17 9.4-.4.2-.6.5-.5.9v18.8c0 .4.2.8.6.9 5.7 3.1 11.3 6.3 17 9.4.3.2.7.2 1.1 0 5.7-3.2 11.3-6.3 17-9.4.4-.2.6-.5.6-1V25.5c0-.4-.2-.7-.5-.9-5.7-3.1-11.4-6.3-17.1-9.4-.1-.1-.3-.1-.5-.2-.4.1-.6.1-.7.2zm.1 33.2-11.4-6.3c-.3-.1-.5-.5-.5-.9V28.6c0-.3.2-.7.5-.8l11.4-6.3c.3-.2.6-.2.9 0l11.4 6.3c.3.1.5.5.5.8v12.7c0 .3-.2.6-.4.7-3.8 2.1-7.6 4.3-11.5 6.4-.1.1-.3.1-.4.1-.2 0-.4-.1-.5-.1z" style="fill:#0a1b21"></path>
</svg>