<svg xmlns="http://www.w3.org/2000/svg" viewBox="0 0 70 70" style="enable-background:new 0 0 70 70" xml:space="preserve" aria-hidden="true">
  <path d="M34.5 69.4c-4.7-2.7-9.5-5.5-14.3-8.2-.4-.2-.6-.6-.5-1V43.9c0-.4.2-.7.5-.9 4.8-2.7 9.6-5.5 14.3-8.2.3-.2.7-.2 1 0 4.8 2.7 9.5 5.5 14.3 8.2.3.2.5.5.5.9V60.2c.1.4-.2.8-.5 1-4.8 2.7-9.5 5.4-14.3 8.2-.2.1-.3.2-.5.2s-.3-.1-.5-.2zM14.8 35.1C10 32.3 5.3 29.6.5 26.9c-.3-.1-.5-.5-.5-.8V9.7c0-.4.2-.7.5-.9C5.3 6.1 10.1 3.3 14.8.6c.3-.2.7-.2 1 0C20.5 3.3 25.3 6 30 8.7c.4.2.6.6.6 1V26c0 .4-.2.7-.5.9-4.8 2.7-9.5 5.4-14.3 8.2-.2.1-.3.2-.5.2-.1 0-.3-.1-.5-.2zm39.3 0L40 27c-.4-.2-.6-.6-.6-1V9.7c0-.4.2-.8.6-1C44.7 6 49.5 3.3 54.2.6c.3-.2.7-.3 1-.1 5 2.9 9.9 5.7 14.9 8.6v17.6c-.2.1-.5.2-.7.3l-14.1 8.1c-.2.1-.4.2-.6.2-.2 0-.4-.1-.6-.2z" style="fill:#0a1b21"></path>
</svg>